<?xml version="1.0" encoding="UTF-8" standalone="no"?>
<!-- Created with Inkscape (http://www.inkscape.org/) -->

<svg
   version="1.1"
   id="svg1"
   width="5120"
   height="2880"
   viewBox="0 0 5120 2880"
   sodipodi:docname="AMOR BONITO_LOGO CURVAS (2).pdf"
   xmlns:inkscape="http://www.inkscape.org/namespaces/inkscape"
   xmlns:sodipodi="http://sodipodi.sourceforge.net/DTD/sodipodi-0.dtd"
   xmlns="http://www.w3.org/2000/svg"
   xmlns:svg="http://www.w3.org/2000/svg">
  <defs
     id="defs1" />
  <sodipodi:namedview
     id="namedview1"
     pagecolor="#ffffff"
     bordercolor="#000000"
     borderopacity="0.25"
     inkscape:showpageshadow="2"
     inkscape:pageopacity="0.0"
     inkscape:pagecheckerboard="0"
     inkscape:deskcolor="#d1d1d1">
    <inkscape:page
       x="0"
       y="0"
       inkscape:label="1"
       id="page1"
       width="5120"
       height="2880"
       margin="1143.548 665.14667 810.79999 613.67065"
       bleed="0" />
  </sodipodi:namedview>
  <g
     id="g1"
     inkscape:groupmode="layer"
     inkscape:label="1">
    <path
       id="path1"
       d="m 0,0 c 5.539,3.094 10.869,5.91 16.042,8.99 27.98,16.656 53.976,36.152 79.648,56.079 40.71,31.599 81.094,63.622 122.003,94.961 29.935,22.932 60.896,44.455 94.368,62.055 15.334,8.063 30.991,15.433 48.13,18.983 13.336,2.761 26.574,2.896 39.188,-2.846 17.363,-7.905 25.575,-22.642 28.83,-40.621 3.749,-20.705 0.153,-40.773 -6.067,-60.481 C 410.973,101.727 396.104,67.821 380.259,34.329 363.831,-0.395 346.271,-34.512 325.478,-66.88 c -10.501,-16.346 -19.583,-26.643 -31.512,-35.348 -0.071,1.075 -0.155,1.946 -0.183,2.819 -0.585,18.883 4.816,36.619 10.743,54.176 13.349,39.538 27.109,78.937 40.413,118.489 8.062,23.969 15.333,48.192 19.771,73.149 1.123,6.31 1.753,12.71 2.526,19.079 0.182,1.505 0.027,3.051 0.027,5.208 -2.946,-1.626 -5.386,-2.881 -7.737,-4.286 -23.385,-13.977 -45.124,-30.311 -65.62,-48.124 C 254.739,84.243 216.129,49.564 177.311,15.124 147.293,-11.508 118.106,-39.113 85.9,-63.182 64.498,-79.177 42.288,-93.864 17.26,-103.722 c -13.149,-5.179 -26.634,-8.641 -40.963,-8.606 -20.637,0.05 -37.57,8.055 -49.469,24.546 -8.237,11.416 -14.813,24.112 -21.405,36.618 -27.727,52.6 -54.848,105.525 -85.138,156.729 -23.166,39.161 -47.696,77.4 -77.059,112.315 -3.336,3.967 -6.835,7.798 -11.082,12.628 -0.264,-4.857 -0.625,-8.612 -0.648,-12.37 -0.175,-27.959 2.999,-55.606 7.802,-83.104 9.749,-55.808 24.946,-110.13 44.558,-163.239 15.972,-43.25 36.44,-84.207 63.307,-121.785 15.825,-22.135 33.981,-42.058 56.846,-57.253 21.018,-13.968 43.996,-21.774 69.383,-21.33 20.672,0.361 40.12,6.001 58.728,14.791 25.336,11.969 47.573,28.46 68.399,46.976 36.151,32.143 67.347,68.804 96.099,107.495 22.619,30.439 44.034,61.774 65.887,92.78 11.625,16.493 24.392,32.013 38.522,46.414 0.916,0.934 1.891,1.808 3.65,2.462 -0.901,-5.366 -1.77,-10.738 -2.707,-16.097 -4.948,-28.284 -15.861,-54.462 -27.869,-80.335 -21.669,-46.688 -46.245,-91.695 -75.698,-133.969 -19.588,-28.115 -41.001,-54.74 -65.354,-78.885 -26.414,-26.188 -55.401,-48.932 -89.299,-64.85 -27.235,-12.789 -55.801,-19.939 -86.01,-19.551 -29.301,0.377 -56.901,7.837 -83.252,20.439 -35.259,16.863 -64.572,41.349 -90.436,70.254 -38.623,43.163 -68.474,92.084 -93.683,143.957 -27.544,56.677 -48.668,115.684 -63.054,177.063 -7.274,31.036 -12.617,62.383 -15.176,94.191 -1.724,21.434 -2.129,42.87 -0.51,64.303 2.09,27.681 7.759,54.429 22.535,78.464 13.646,22.195 32.381,37.816 58.337,43.478 21.778,4.751 42.626,1.024 62.72,-7.873 23.61,-10.454 42.951,-26.617 60.12,-45.576 30.198,-33.347 54.325,-70.981 76.872,-109.677 C -72.329,156.829 -41.96,93.402 -13.048,29.252 -8.732,19.676 -4.488,10.068 0,0"
       style="fill:#f28686;fill-opacity:1;fill-rule:nonzero;stroke:none"
       transform="matrix(1.3333333,0,0,-1.3333333,2317.0953,1321.3092)" />
    <path
       id="path2"
       d="M 0,0 -50.701,169.185 -102.469,0 Z m 3.202,-10.674 h -108.873 l -18.679,-62.443 v -69.916 h -32.555 l 100.867,330.364 -21.881,74.186 h 11.741 c 26.151,0 49.634,-17.079 57.105,-42.697 L 98.733,-143.033 H 77.385 c -21.347,0 -38.426,12.808 -44.296,33.09 z"
       style="fill:#672e34;fill-opacity:1;fill-rule:nonzero;stroke:none"
       transform="matrix(1.3333333,0,0,-1.3333333,822.8776,1457.2279)" />
    <path
       id="path3"
       d="m 0,0 v 226.825 c 0,25.618 17.078,43.231 43.229,43.231 H 53.903 V 218.82 c 14.41,35.224 42.695,56.573 77.919,56.573 31.488,0 54.97,-17.613 60.841,-60.309 13.876,37.359 42.695,60.309 79.52,60.309 36.824,0 62.442,-23.483 62.442,-83.259 V 43.23 C 334.625,17.078 317.013,0 291.396,0 h -10.674 v 185.73 c 0,51.77 -18.68,67.247 -35.758,67.247 -27.218,0 -50.7,-40.028 -50.7,-93.399 V 43.23 C 194.264,17.078 177.186,0 151.035,0 h -10.674 v 185.73 c 0,51.77 -18.679,67.247 -35.757,67.247 -26.685,0 -50.701,-40.028 -50.701,-93.399 V 43.23 C 53.903,17.078 36.825,0 10.674,0 Z"
       style="fill:#672e34;fill-opacity:1;fill-rule:nonzero;stroke:none"
       transform="matrix(1.3333333,0,0,-1.3333333,968.04427,1647.9388)" />
    <path
       id="path4"
       d="m 0,0 c 51.768,0 86.458,51.77 86.458,129.69 0,77.388 -34.69,129.158 -86.458,129.158 -51.768,0 -86.458,-51.77 -86.458,-129.158 C -86.458,51.77 -51.768,0 0,0 m 0,270.056 c 84.323,0 140.361,-56.573 140.361,-140.366 C 140.361,45.365 84.323,-10.674 0,-10.674 c -84.323,0 -140.361,56.039 -140.361,140.364 0,83.793 56.038,140.366 140.361,140.366"
       style="fill:#672e34;fill-opacity:1;fill-rule:nonzero;stroke:none"
       transform="matrix(1.3333333,0,0,-1.3333333,1629.8255,1640.8229)" />
    <path
       id="path5"
       d="m 0,0 v 226.825 c 0,25.618 17.078,43.231 43.229,43.231 h 10.674 v -42.163 c 9.606,30.421 25.617,47.5 49.099,47.5 25.084,0 55.504,-19.214 75.785,-70.983 l -17.612,-5.337 c -18.146,-5.871 -33.089,1.601 -43.229,21.882 -14.41,29.887 -19.747,37.893 -27.218,37.893 -18.68,0 -36.825,-46.433 -36.825,-123.821 V 43.23 C 53.903,17.078 36.825,0 10.674,0 Z"
       style="fill:#672e34;fill-opacity:1;fill-rule:nonzero;stroke:none"
       transform="matrix(1.3333333,0,0,-1.3333333,1847.5749,1647.9388)" />
    <path
       id="path6"
       d="M 0,0 C 59.24,0 88.594,39.494 88.594,100.871 88.594,160.112 59.24,199.606 0,199.606 H -46.431 V 32.557 C -46.431,19.214 -51.234,7.473 -59.239,0 Z m -10.674,210.814 c 59.24,0 88.594,38.961 88.594,85.927 0,46.967 -29.354,86.461 -88.594,86.461 h -48.565 c 8.005,-7.472 12.808,-18.68 12.808,-32.556 V 210.814 Z m -89.66,-221.488 v 404.55 h 122.75 c 65.644,0 109.406,-43.764 109.406,-97.135 0,-40.561 -25.617,-75.252 -66.711,-90.196 47.498,-11.742 77.385,-51.77 77.385,-107.81 0,-65.645 -43.763,-109.409 -109.406,-109.409 z"
       style="fill:#672e34;fill-opacity:1;fill-rule:nonzero;stroke:none"
       transform="matrix(1.3333333,0,0,-1.3333333,2787.5885,1633.7071)" />
    <path
       id="path7"
       d="m 0,0 c 51.769,0 86.458,51.77 86.458,129.69 0,77.388 -34.689,129.158 -86.458,129.158 -51.769,0 -86.458,-51.77 -86.458,-129.158 C -86.458,51.77 -51.769,0 0,0 m 0,270.056 c 84.323,0 140.36,-56.573 140.36,-140.366 C 140.36,45.365 84.323,-10.674 0,-10.674 c -84.323,0 -140.36,56.039 -140.36,140.364 0,83.793 56.037,140.366 140.36,140.366"
       style="fill:#672e34;fill-opacity:1;fill-rule:nonzero;stroke:none"
       transform="matrix(1.3333333,0,0,-1.3333333,3183.2357,1640.8229)" />
    <path
       id="path8"
       d="m 0,0 c 0,-26.152 -17.078,-43.23 -42.695,-43.23 h -11.207 v 175.055 c 0,51.77 -18.147,77.922 -45.365,77.922 -32.021,0 -62.442,-38.427 -62.442,-93.399 V 0 c 0,-26.152 -17.078,-43.23 -43.228,-43.23 h -10.674 v 226.825 c 0,25.618 17.078,43.23 43.228,43.23 h 10.674 v -56.039 c 16.545,37.893 50.168,61.376 89.66,61.376 C -25.084,232.162 0,198.005 0,138.23 Z"
       style="fill:#672e34;fill-opacity:1;fill-rule:nonzero;stroke:none"
       transform="matrix(1.3333333,0,0,-1.3333333,3688.4661,1590.2981)" />
    <path
       id="path9"
       d="m 0,0 v 226.825 c 0,25.618 17.078,43.231 43.229,43.231 H 53.902 V 43.23 C 53.902,17.078 36.824,0 10.674,0 Z m 27.219,409.887 c 18.678,0 31.487,-12.809 31.487,-31.489 0,-19.213 -12.809,-32.023 -31.487,-32.023 -19.213,0 -32.022,12.81 -32.022,32.023 0,18.68 12.809,31.489 32.022,31.489"
       style="fill:#672e34;fill-opacity:1;fill-rule:nonzero;stroke:none"
       transform="matrix(1.3333333,0,0,-1.3333333,3725.4713,1647.9388)" />
    <path
       id="path10"
       d="m 0,0 h 18.146 v 59.241 c 0,25.618 17.612,43.231 43.229,43.231 H 72.049 V 0 h 71.514 V -11.208 H 72.049 v -123.82 c 0,-75.786 6.404,-129.691 31.488,-129.691 12.809,0 18.145,13.343 33.088,43.764 9.607,19.748 24.551,27.753 43.229,21.349 l 17.079,-5.337 c -21.882,-44.298 -50.701,-70.45 -96.599,-70.45 -65.109,0 -82.188,52.837 -82.188,135.028 v 129.157 l -18.146,0 z"
       style="fill:#672e34;fill-opacity:1;fill-rule:nonzero;stroke:none"
       transform="matrix(1.3333333,0,0,-1.3333333,3817.2656,1287.8645)" />
    <path
       id="path11"
       d="m 0,0 c 51.769,0 86.458,51.77 86.458,129.69 0,77.388 -34.689,129.158 -86.458,129.158 -51.769,0 -86.458,-51.77 -86.458,-129.158 C -86.458,51.77 -51.769,0 0,0 m 0,270.056 c 84.323,0 140.36,-56.573 140.36,-140.366 C 140.36,45.365 84.323,-10.674 0,-10.674 c -84.323,0 -140.36,56.039 -140.36,140.364 0,83.793 56.037,140.366 140.36,140.366"
       style="fill:#672e34;fill-opacity:1;fill-rule:nonzero;stroke:none"
       transform="matrix(1.3333333,0,0,-1.3333333,4267.7044,1640.8229)" />
    <path
       id="path12"
       d="M 0,0 C 2.351,1.405 4.791,2.659 7.737,4.285 7.737,2.129 7.892,0.583 7.71,-0.923 6.937,-7.291 6.307,-13.691 5.184,-20.001 0.746,-44.958 -6.525,-69.181 -14.587,-93.15 -27.891,-132.702 -41.652,-172.101 -55,-211.639 c -5.928,-17.557 -11.328,-35.294 -10.743,-54.176 0.027,-0.873 0.112,-1.744 0.183,-2.819 11.929,8.705 21.011,19.002 31.511,35.348 20.794,32.368 38.354,66.485 54.782,101.209 15.845,33.492 30.714,67.398 41.883,102.79 6.22,19.709 9.816,39.777 6.067,60.481 -3.255,17.979 -11.467,32.717 -28.83,40.622 -12.614,5.742 -25.852,5.607 -39.188,2.845 -17.14,-3.549 -32.796,-10.919 -48.13,-18.982 z"
       style="fill:#f28686;fill-opacity:1;fill-rule:nonzero;stroke:none"
       transform="matrix(1.3333333,0,0,-1.3333333,2796.4636,1099.4343)" />
  </g>
</svg>
